<?xml version="1.0" encoding="UTF-8"?>
<svg version="1.1" xmlns="http://www.w3.org/2000/svg" width="1080" height="1080">
<path d="M0 0 C20.46830251 20.57888924 27.21071482 45.48527373 27.18408203 73.82446289 C26.83538638 109.43679729 12.72708054 140.69609881 -11.75 166.375 C-36.6270549 190.56209036 -69.79403311 198.88385969 -103.68359375 198.5234375 C-132.81629075 197.82352694 -157.96280888 185.69572104 -178.01953125 164.69921875 C-198.33625791 142.60755185 -205.30475551 114.65779798 -204.26220703 85.41845703 C-203.77467888 77.83614271 -202.07240098 70.61620191 -200.0625 63.3125 C-199.89121582 62.64524902 -199.71993164 61.97799805 -199.54345703 61.29052734 C-194.96449561 43.57729232 -186.74416866 26.42247727 -175.0625 12.3125 C-174.60649414 11.76158691 -174.15048828 11.21067383 -173.68066406 10.64306641 C-152.11518852 -14.91135606 -122.58920843 -28.64748203 -89.5 -31.5 C-55.24270675 -33.02337204 -24.86783914 -24.18802704 0 0 Z M-158.75 19 C-174.69987854 37.46527157 -177.3149818 58.69377206 -176.0625 82.3125 C-173.54867539 107.08360672 -160.82046736 129.3283399 -144.0625 147.3125 C-143.4025 147.3125 -142.7425 147.3125 -142.0625 147.3125 C-142.0625 147.9725 -142.0625 148.6325 -142.0625 149.3125 C-123.15184772 167.56706843 -100.88498249 176.08049466 -74.7734375 175.625 C-67.42849948 175.33478184 -60.98369133 173.8574054 -54.0625 171.3125 C-52.29712891 170.67634766 -52.29712891 170.67634766 -50.49609375 170.02734375 C-28.77447547 161.46745246 -12.61958456 145.47666944 -3.25 124.25 C0.91400975 114.2533701 2.4757704 104.33445281 2.375 93.5625 C2.36815186 92.42796387 2.36130371 91.29342773 2.35424805 90.12451172 C2.18004189 80.96009322 0.97936997 72.96936275 -2.0625 64.3125 C-2.42472656 63.27609375 -2.78695312 62.2396875 -3.16015625 61.171875 C-14.16390192 32.67403875 -36.18105307 12.08633917 -63.68945312 -0.41552734 C-98.2429294 -15.55786464 -132.66385152 -8.29633063 -158.75 19 Z " fill="#0A332B" transform="translate(322.0625,414.6875)"/>
<path d="M0 0 C9.9 0 19.8 0 30 0 C31.17433594 3.46242188 32.34867188 6.92484375 33.55859375 10.4921875 C38.49052965 25.03259455 43.42418868 39.57241661 48.3591156 54.11180878 C48.98099993 55.94402147 49.60286598 57.77624038 50.22473145 59.60845947 C51.38145662 63.01636264 52.53833113 66.42421505 53.6953125 69.83203125 C54.06365204 70.91698883 54.43199158 72.00194641 54.81149292 73.11978149 C56.60312704 78.39559355 58.39687604 83.67067207 60.19482422 88.94433594 C60.53770477 89.95009674 60.88058533 90.95585754 61.2338562 91.99209595 C61.90266558 93.95385244 62.57154791 95.91558407 63.24050903 97.87728882 C64.9443594 102.87949844 66.63450446 107.8858342 68.30267334 112.90005493 C74.95469181 134.87511281 74.95469181 134.87511281 86.73046875 154.28515625 C89 157 89 157 89 159 C60.785 159.495 60.785 159.495 32 160 C34 156 34 156 35.59725952 154.05567932 C38.29531859 150.10174464 37.51775028 145.58688428 37 141 C35.92601952 136.31374765 34.43951282 131.80521162 32.8984375 127.25390625 C32.46389647 125.93142972 32.03085867 124.60845845 31.59921265 123.28503418 C30.4467073 119.76405693 29.27513608 116.2497096 28.09983826 112.73628616 C26.88565834 109.0949669 25.68980782 105.44764923 24.49316406 101.80053711 C23.04876345 97.40123556 21.60323884 93.00233125 20.14990234 88.60597229 C15.91436686 75.79030109 11.81017604 62.93477925 7.75 50.0625 C6.64246603 46.55279974 5.53285796 43.04376599 4.421875 39.53515625 C4.18745697 38.78939331 3.95303894 38.04363037 3.71151733 37.27526855 C2.54750548 33.56255691 2.54750548 33.56255691 1 30 C-1.47172143 37.63404359 -3.94133299 45.2687656 -6.40853119 52.90427208 C-7.55524706 56.45293209 -8.70258614 60.00138759 -9.8515625 63.54931641 C-14.47530528 77.82876023 -19.0787434 92.1140492 -23.52734375 106.44921875 C-23.85114014 107.48432587 -24.17493652 108.51943298 -24.50854492 109.58590698 C-30.6499366 129.43075584 -30.6499366 129.43075584 -27.5625 149.4375 C-27.046875 150.283125 -26.53125 151.12875 -26 152 C-25.505 153.1446875 -25.505 153.1446875 -25 154.3125 C-24.04145794 156.35003098 -24.04145794 156.35003098 -21 157 C-21 157.66 -21 158.32 -21 159 C-34.2 159 -47.4 159 -61 159 C-59.26055679 155.52111359 -57.37000806 152.27178637 -55.375 148.9375 C-52.25290261 143.55193009 -49.60135416 138.07920183 -47.21484375 132.33203125 C-46.87230057 131.51152283 -46.52975739 130.6910144 -46.17683411 129.84564209 C-42.21809786 120.25513865 -38.68621101 110.51559985 -35.1875 100.75 C-34.83326965 99.76663666 -34.47903931 98.78327332 -34.11407471 97.77011108 C-25.90344728 74.97671018 -18.01690498 52.07090864 -10.15223694 29.15634155 C-6.80884063 19.42313629 -3.41005013 9.7100499 0 0 Z " fill="#0A332B" transform="translate(874,444)"/>
<path d="M0 0 C18.81 0 37.62 0 57 0 C55 4 55 4 52.875 6.5 C48.52903982 14.612459 51.1546117 24.40457707 53.69140625 32.80859375 C53.99558975 33.85405869 54.29977325 34.89952362 54.61317444 35.97666931 C59.3495637 51.94074545 64.75453876 67.70566933 70.06970215 83.48376465 C71.53605694 87.84116301 72.99521828 92.20096917 74.45507812 96.56054688 C77.29655169 105.04266776 80.14567333 113.5221964 83 122 C84.68489132 119.47266302 85.5471771 117.73924282 86.48950195 114.93212891 C86.76817108 114.10952576 87.04684021 113.28692261 87.33395386 112.43939209 C87.6323819 111.54415833 87.93080994 110.64892456 88.23828125 109.7265625 C88.55572296 108.78685608 88.87316467 107.84714966 89.20022583 106.87896729 C89.88474181 104.85171417 90.5673496 102.82381595 91.2482605 100.79534912 C93.03942126 95.45951548 94.84356491 90.12808348 96.6484375 84.796875 C97.0125322 83.72069916 97.37662689 82.64452332 97.75175476 81.53573608 C101.75715874 69.72248361 105.90841385 57.9613876 110.10083008 46.21337891 C110.60759119 44.7854841 111.11434612 43.3575871 111.62109375 41.9296875 C112.0586499 40.70491699 112.49620605 39.48014648 112.94702148 38.21826172 C115.62082472 30.04620648 117.14612213 19.49186548 113.3125 11.5 C111.23838222 8.03570292 108.62174344 5.05870067 106 2 C106 1.34 106 0.68 106 0 C118.54 0 131.08 0 144 0 C142.40969165 3.1806167 140.76845849 5.92987256 138.8125 8.875 C132.02002207 19.50151197 127.11692774 30.63243376 122.953125 42.50390625 C122.49989955 43.774984 122.04586516 45.04577355 121.59109497 46.31629944 C120.3836209 49.69626251 119.18677958 53.07989669 117.99199677 56.4643631 C116.73775114 60.01098103 115.47320902 63.55392315 114.20947266 67.09716797 C112.14267717 72.89507032 110.0809668 78.69475525 108.02246094 84.49560547 C103.90928431 96.08316751 99.75127729 107.654581 95.59509277 119.22677612 C93.67306421 124.58004392 91.75426757 129.93446844 89.8359375 135.2890625 C89.32637512 136.71130379 89.32637512 136.71130379 88.80651855 138.16227722 C86.19960496 145.43983009 83.59805641 152.71928064 81 160 C72.75 160 64.5 160 56 160 C53.36715343 153.41788357 50.90672237 146.95455564 48.75 140.2265625 C48.30843063 138.86431549 48.30843063 138.86431549 47.85794067 137.47454834 C47.22907928 135.53368628 46.60168253 133.59234913 45.97564697 131.65057373 C44.30101255 126.45737367 42.61489174 121.26790282 40.9296875 116.078125 C40.59202362 115.03743866 40.25435974 113.99675232 39.90646362 112.92453003 C36.80029086 103.36136585 33.62612954 93.8218148 30.42477417 84.29016113 C27.10461808 74.40079716 23.85671047 64.49002415 20.65234375 54.5625 C19.88603073 52.19478351 19.11959151 49.82710785 18.35302734 47.45947266 C17.21570976 43.94654284 16.08102892 40.43288716 14.9553833 36.91619873 C13.90570629 33.63712026 12.84627966 30.36132674 11.78515625 27.0859375 C11.47722641 26.11446777 11.16929657 25.14299805 10.85203552 24.14208984 C8.5381011 17.04384624 5.9239741 9.82006071 1.34681702 3.84017944 C0 2 0 2 0 0 Z " fill="#0A332B" transform="translate(589,443)"/>
<path d="M0 0 C20.46 0 40.92 0 62 0 C60 4 60 4 57.625 6.1875 C49.72949737 14.6469671 49.84957871 25.15996281 49.83886719 36.1081543 C49.83390228 37.3234079 49.82893738 38.5386615 49.82382202 39.79074097 C49.8117538 43.11074521 49.80426723 46.43068683 49.79981136 49.75070548 C49.79687313 51.8255393 49.79276717 53.90036768 49.78830719 55.97519875 C49.77465636 62.46944739 49.76497502 68.96368353 49.7611053 75.45794553 C49.75661488 82.95159158 49.7390116 90.44505612 49.7101047 97.93864697 C49.68851444 103.7366475 49.67840263 109.53459681 49.67706418 115.33263713 C49.67601526 118.79406628 49.67008779 122.25532423 49.65224457 125.71671104 C49.63275744 129.57121079 49.63704216 133.42548134 49.64355469 137.2800293 C49.6343399 138.42865952 49.62512512 139.57728973 49.6156311 140.76072693 C49.62398483 142.33156036 49.62398483 142.33156036 49.63250732 143.93412781 C49.63104076 144.8453625 49.6295742 145.75659719 49.6280632 146.69544506 C50.07449729 149.46159213 50.81774739 150.3028854 53 152 C62.49241221 156.7462061 79.97168281 154.34455875 90 152 C99.23716066 148.59629596 104.62752496 144.50819263 108.984375 135.53515625 C111.12842262 130.18328353 112.53001413 124.56718054 114 119 C117.3 119 120.6 119 124 119 C124 132.53 124 146.06 124 160 C84.07 160 44.14 160 3 160 C3 159.34 3 158.68 3 158 C4.50656146 156.75544923 6.0144853 155.51242716 7.53515625 154.28515625 C11.06122609 151.19161765 11.4127102 147.47651061 12 143 C12.14905986 139.36400117 12.146879 135.73072047 12.14526367 132.09204102 C12.14862228 131.0033522 12.1519809 129.91466339 12.15544128 128.79298401 C12.16493239 125.1966131 12.1668939 121.6002889 12.16796875 118.00390625 C12.17118408 115.49250774 12.17454836 112.98110942 12.17805481 110.4697113 C12.18404253 105.20156555 12.18593815 99.93343155 12.18530273 94.6652832 C12.18477032 89.27951083 12.19177145 83.8938105 12.20581055 78.50805664 C12.22256795 71.98478202 12.22935535 65.46157187 12.22869301 58.93827629 C12.22986572 56.46381198 12.23424726 53.98934685 12.24202538 51.51489449 C13.66899756 26.67672885 13.66899756 26.67672885 4 5 C3.27554687 4.46890625 2.55109375 3.9378125 1.8046875 3.390625 C1.20914062 2.93171875 0.61359375 2.4728125 0 2 C0 1.34 0 0.68 0 0 Z " fill="#0A332B" transform="translate(367,443)"/>
<path d="M0 0 C17.82 0 35.64 0 54 0 C52 4 52 4 50 6.625 C45.41532812 14.36163379 45.70540472 23.41100678 45.7253418 32.17578125 C45.72023087 33.3511142 45.71511993 34.52644714 45.70985413 35.73739624 C45.69603233 39.59581695 45.69690905 43.45405759 45.69921875 47.3125 C45.69690536 49.32706946 45.69340136 51.34163458 45.689812 53.35620213 C45.67875804 59.68052009 45.6782567 66.00477864 45.68432617 72.32910156 C45.69036833 78.82867766 45.67803949 85.32803742 45.6567561 91.82757664 C45.63908332 97.43299763 45.63314749 103.03835009 45.63639385 108.64379787 C45.63819721 111.98077555 45.63433039 115.31747598 45.62167931 118.65444946 C45.60929225 122.37787392 45.61612036 126.10080177 45.62768555 129.82421875 C45.62004181 130.91334564 45.61239807 132.00247253 45.60452271 133.12460327 C45.65588789 140.63660433 46.13530086 148.48348595 51.04296875 154.5078125 C51.75066406 155.04148437 52.45835937 155.57515625 53.1875 156.125 C54.26064453 156.96417969 54.26064453 156.96417969 55.35546875 157.8203125 C55.89816406 158.20960938 56.44085937 158.59890625 57 159 C56.67 159.66 56.34 160.32 56 161 C26.795 160.505 26.795 160.505 -3 160 C-3 159.34 -3 158.68 -3 158 C-1.51054369 156.80843495 -0.02104905 155.61691775 1.46875 154.42578125 C5.33276076 150.82791409 6.85966575 145.65285223 7.13142776 140.51551437 C7.13440243 139.57830173 7.13737709 138.6410891 7.14044189 137.67547607 C7.14615204 136.59611282 7.15186218 135.51674957 7.15774536 134.40467834 C7.15886322 133.22538254 7.15998108 132.04608673 7.16113281 130.83105469 C7.16609772 129.58511032 7.17106262 128.33916595 7.17617798 127.0554657 C7.18827687 123.63996941 7.19574236 120.22453428 7.20018864 116.80902386 C7.20312366 114.67285335 7.2072293 112.53668815 7.21169281 110.40052032 C7.22536225 103.71029999 7.23503124 97.02009187 7.2388947 90.32985854 C7.2433723 82.61947234 7.26090852 74.90926369 7.2898953 67.19893146 C7.31154876 61.23104326 7.32160096 55.26320488 7.32293582 49.29527783 C7.32398136 45.73473352 7.32983517 42.17435624 7.34775543 38.61385345 C7.36737718 34.6380192 7.36293253 30.66240485 7.35644531 26.68652344 C7.3656601 25.51532455 7.37487488 24.34412567 7.3843689 23.13743591 C7.34676359 15.77295035 7.03635549 9.29661453 1.8125 3.625 C0.9153125 2.820625 0.9153125 2.820625 0 2 C0 1.34 0 0.68 0 0 Z " fill="#0A332B" transform="translate(748,443)"/>
<path d="M0 0 C17.82 0 35.64 0 54 0 C52 4 52 4 50 7.0625 C45.42112272 15.07634183 45.70661284 24.96727012 45.74121094 33.93798828 C45.7377063 35.07605927 45.73420166 36.21413025 45.73059082 37.38668823 C45.72185322 41.1146267 45.72759365 44.84237241 45.734375 48.5703125 C45.73302625 51.17861975 45.73108397 53.78692676 45.72857666 56.39523315 C45.72495291 61.84700578 45.72969516 67.29872395 45.73925781 72.75048828 C45.75015026 79.03250677 45.74660466 85.31439549 45.735605 91.59641087 C45.72540064 97.66994184 45.7265245 103.74341575 45.73236847 109.81695175 C45.73369889 112.38847751 45.73207862 114.96000661 45.72740936 117.53152847 C45.72231035 121.12804094 45.73010148 124.72430662 45.74121094 128.32080078 C45.73716248 129.37454895 45.73311401 130.42829712 45.72894287 131.51397705 C45.77829008 140.17079916 46.26141057 148.11369269 52 155 C53.63978318 156.04349839 55.30094366 157.05607981 57 158 C57 158.66 57 159.32 57 160 C37.2 160 17.4 160 -3 160 C-3 159.34 -3 158.68 -3 158 C-1.93198872 157.08121769 -0.81932837 156.21391213 0.3125 155.375 C5.90925352 150.71669202 6.93206009 145.44017336 7.78563881 138.40589523 C8.19771133 133.78097542 8.14726718 129.15030045 8.14526367 124.51025391 C8.14862228 123.38398087 8.1519809 122.25770782 8.15544128 121.0973053 C8.16490614 117.39037968 8.16689206 113.68349944 8.16796875 109.9765625 C8.17118411 107.38878359 8.17454839 104.80100485 8.17805481 102.21322632 C8.18403467 96.79481507 8.18593883 91.3764217 8.18530273 85.95800781 C8.18470223 79.71641063 8.19525448 73.47489995 8.2110464 67.23332465 C8.22575374 61.20306069 8.2292893 55.17284332 8.22869301 49.14255905 C8.2298699 46.58860292 8.23427533 44.03464609 8.24202538 41.48070145 C8.25186625 37.9032404 8.24893107 34.32600005 8.24291992 30.74853516 C8.25134918 29.18026222 8.25134918 29.18026222 8.25994873 27.58030701 C8.22054686 18.31206983 8.08137126 10.1814604 1.2421875 3.375 C0 2 0 2 0 0 Z " fill="#0A332B" transform="translate(519,443)"/>
<path d="M0 0 C1.875 1.1875 1.875 1.1875 3 3 C3.46856135 6.74849077 3.15502531 7.76746204 1 11 C2.546875 11.7115625 2.546875 11.7115625 4.125 12.4375 C10.95155297 16.36207701 14.19658414 23.48718895 16.45703125 30.76171875 C22.12648541 54.13292189 18.12581332 78.54351974 6 99 C5.25850313 100.11637179 4.50890063 101.22741665 3.75 102.33203125 C1.81717692 104.74694049 1.81717692 104.74694049 2 107 C6.79819403 109.55903682 11.70197223 109.38612745 17 109 C17.99 108.67 18.98 108.34 20 108 C19.67 107.67 19.34 107.34 19 107 C16.05077147 88.97693678 18.30435418 70.15642583 28.1875 54.5625 C32.43600372 48.92541606 37.60122997 44.76083377 44.6875 43.53515625 C49.51037469 43.35573383 53.26610545 43.70538716 57 47 C61.99618929 53.52280268 62.60983621 58.98178321 62 67 C59.97023824 78.93775138 53.82347877 88.94804109 46 98 C45.35546875 98.763125 44.7109375 99.52625 44.046875 100.3125 C37.05669267 107.975811 27.03814653 114.22783159 16.51953125 115.23828125 C10.51275411 115.40296922 6.28583075 114.73517618 0.97265625 111.875 C-1.24973862 110.72968896 -1.24973862 110.72968896 -5 111 C-7.01755281 111.86490647 -7.01755281 111.86490647 -9.0625 113 C-16.76888487 116.54999041 -24.69565477 115.70772668 -32.58984375 113.04296875 C-36.78990681 111.22543741 -40.36791573 108.75983889 -44 106 C-44.59425781 105.57074219 -45.18851563 105.14148438 -45.80078125 104.69921875 C-56.26571641 96.54378653 -65.73267747 82.15047066 -68 69 C-68.6076558 61.09097998 -69.16420719 53.49360706 -64 47 C-60.94334767 44.12315075 -58.2520076 43.76790391 -54.1875 43.5625 C-46.61204621 43.85429526 -42.00247435 46.64940526 -36.8125 52.0625 C-27.27258954 63.49168684 -24.47439251 77.47893057 -24.75 92 C-24.75515625 93.11761719 -24.7603125 94.23523438 -24.765625 95.38671875 C-24.84423525 103.53270575 -24.84423525 103.53270575 -26 107 C-26.66 107 -27.32 107 -28 107 C-28.09498779 106.41210693 -28.18997559 105.82421387 -28.2878418 105.21850586 C-32.4209166 76.95646988 -32.4209166 76.95646988 -48 54 C-48.639375 53.401875 -49.27875 52.80375 -49.9375 52.1875 C-52.70365208 50.59486699 -54.86597201 50.78631627 -58 51 C-61.47262963 58.56681943 -59.66436321 65.76557768 -56.9375 73.375 C-54.03503021 80.43347002 -50.26598894 86.68879414 -46 93 C-45.57976563 93.62777344 -45.15953125 94.25554687 -44.7265625 94.90234375 C-39.77788337 101.5181311 -31.14134018 107.31028789 -23 109 C-17.12449458 109.56741641 -12.56876358 109.02573863 -7 107 C-7.59167969 106.21238281 -8.18335938 105.42476563 -8.79296875 104.61328125 C-23.07679399 85.13396393 -26.78389305 61.50315126 -23.49609375 37.76953125 C-21.61968916 27.93717121 -18.53468369 19.41980881 -10.6484375 12.9609375 C-9 12 -9 12 -6 12 C-6 11.34 -6 10.68 -6 10 C-6.66 10 -7.32 10 -8 10 C-9.32850242 3.59903382 -9.32850242 3.59903382 -7.9375 1.0625 C-5.13281671 -0.47555213 -3.14485925 -0.39310741 0 0 Z M-6.375 18.8125 C-15.7581882 28.69391059 -15.5445154 46.50712736 -15.24609375 59.31640625 C-14.78990967 70.21262397 -12.80847364 80.63191915 -9.0625 90.875 C-8.82192871 91.53516113 -8.58135742 92.19532227 -8.33349609 92.87548828 C-6.82109271 96.71219574 -5.12831562 99.31086476 -2 102 C9.39278223 79.82205059 13.04077473 53.17832002 6 29 C3.61244421 21.77761311 3.61244421 21.77761311 -2 17 C-4.23295035 16.79777556 -4.23295035 16.79777556 -6.375 18.8125 Z M36.5 57.875 C29.87485514 66.893369 26.75284361 77.08606871 24.125 87.8125 C23.90956543 88.68358398 23.69413086 89.55466797 23.47216797 90.45214844 C22.17712708 96.09367701 21.80108245 101.21383963 22 107 C30.89911508 104.95291553 37.74050818 97.08965283 43 90 C48.92986716 80.43855539 54.30403397 70.75923554 54.25 59.25 C54.25515625 58.14140625 54.2603125 57.0328125 54.265625 55.890625 C54.21337582 52.80414242 54.21337582 52.80414242 52 50 C44.91054525 48.8721322 40.83422263 52.75966472 36.5 57.875 Z " fill="#C6A75E" transform="translate(657,280)"/>
<path d="M0 0 C1.9375 0.875 1.9375 0.875 3.9375 3.875 C4.55625 3.38 5.175 2.885 5.8125 2.375 C11.01501003 -0.12220481 15.97133249 -0.07693283 21.45703125 1.68359375 C33.81850968 7.30952645 43.75684204 18.38047197 48.9375 30.875 C48.9375 31.865 48.9375 32.855 48.9375 33.875 C45.79457901 32.51644705 44.10120189 31.11834379 42 28.4375 C34.41620612 19.4971223 24.79826249 10.70917792 13.1875 8 C9.97111957 7.87629306 8.55954925 8.09200651 5.9375 9.875 C7.60585333 17.28990368 12.0091923 21.8908497 18.16015625 26.05859375 C29.76363832 33.1372154 40.81380404 36.82623302 54.54296875 34.41796875 C56.35910144 33.97116796 58.1529734 33.43485148 59.9375 32.875 C58.93975828 35.43372472 58.29411889 36.65813716 55.9140625 38.10546875 C55.13804687 38.42128906 54.36203125 38.73710937 53.5625 39.0625 C52.40621094 39.54783203 52.40621094 39.54783203 51.2265625 40.04296875 C40.92059071 43.78899604 30.89021374 41.97958632 20.9375 37.875 C12.17904145 33.40524402 4.48731798 27.69505142 0.9375 18.25 C-0.12809204 14.52365692 -0.12940479 11.65766244 0.9375 7.875 C-0.7125 7.545 -2.3625 7.215 -4.0625 6.875 C-4.75 5.0625 -4.75 5.0625 -5.0625 2.875 C-3.53076046 0.53708176 -2.83628547 -0.17189609 0 0 Z " fill="#C6A75E" transform="translate(563.0625,361.125)"/>
<path d="M0 0 C1.65 0 3.3 0 5 0 C11.26117648 15.27274057 17.45402314 30.57239065 23.59326172 45.89453125 C24.32428315 47.71865969 25.05589374 49.54255212 25.78808594 51.36621094 C26.82274112 53.94395366 27.85507801 56.52261214 28.88671875 59.1015625 C29.20182907 59.88576569 29.51693939 60.66996887 29.84159851 61.47793579 C32 66.8854295 32 66.8854295 32 68 C30.02 68 28.04 68 26 68 C24.6582322 64.73256344 23.32805641 61.46053092 22 58.1875 C21.6184375 57.25873047 21.236875 56.32996094 20.84375 55.37304688 C20.30234375 54.0340332 20.30234375 54.0340332 19.75 52.66796875 C19.41484375 51.84578857 19.0796875 51.0236084 18.734375 50.17651367 C18 48 18 48 18 45 C7.77 45 -2.46 45 -13 45 C-13.495 47.475 -13.495 47.475 -14 50 C-14.50682272 51.48806555 -15.05052065 52.96404309 -15.62890625 54.42578125 C-16.09780273 55.61977539 -16.09780273 55.61977539 -16.57617188 56.83789062 C-16.90166016 57.65451172 -17.22714844 58.47113281 -17.5625 59.3125 C-17.89185547 60.14845703 -18.22121094 60.98441406 -18.56054688 61.84570312 C-19.36998877 63.89863546 -20.18323457 65.94997286 -21 68 C-22.98 68 -24.96 68 -27 68 C-20.97377457 52.10139939 -14.75408235 36.28509832 -8.4375 20.5 C-8.0768042 19.59789795 -7.7161084 18.6957959 -7.34448242 17.76635742 C-6.31289354 15.18750257 -5.27985044 12.60923654 -4.24609375 10.03125 C-3.77640419 8.85792114 -3.77640419 8.85792114 -3.29722595 7.66088867 C-1.11670895 2.2334179 -1.11670895 2.2334179 0 0 Z M2 5 C1.74831055 5.70495605 1.49662109 6.40991211 1.23730469 7.13623047 C0.07680524 10.38318241 -1.08657961 13.62909358 -2.25 16.875 C-2.64574219 17.98359375 -3.04148437 19.0921875 -3.44921875 20.234375 C-4.03896484 21.87792969 -4.03896484 21.87792969 -4.640625 23.5546875 C-4.99672852 24.54968262 -5.35283203 25.54467773 -5.71972656 26.56982422 C-7.4017738 31.07645345 -9.21349928 35.53374821 -11 40 C-2.42 40 6.16 40 15 40 C14.1973235 35.98661748 13.24466732 32.74162556 11.78515625 28.96484375 C11.34623047 27.82595703 10.90730469 26.68707031 10.45507812 25.51367188 C9.99552734 24.33353516 9.53597656 23.15339844 9.0625 21.9375 C8.60681641 20.75349609 8.15113281 19.56949219 7.68164062 18.34960938 C5.09142252 11.56421101 5.09142252 11.56421101 2 5 Z " fill="#0A332B" transform="translate(441,630)"/>
<path d="M0 0 C3.26269829 1.29148474 4.5619688 2.48644618 6.8125 5.125 C8.88065908 10.13212199 8.97385567 14.38250606 7.07421875 19.48828125 C1.89782181 29.30663887 -7.49701032 35.5978921 -17.74609375 39.34375 C-27.87498965 42.29289127 -37.62807557 42.07645906 -47 37 C-49.28125 35.48828125 -49.28125 35.48828125 -51 34 C-51 33.34 -51 32.68 -51 32 C-49.948125 32.33 -48.89625 32.66 -47.8125 33 C-35.20198602 36.06922562 -23.77780947 33.49103867 -12.6875 27.125 C-6.89554579 23.42820608 -0.82917951 19.49047065 2 13 C2.25196129 10.29046449 2.25196129 10.29046449 2 8 C-3.74596656 6.5736245 -7.66821735 7.54085127 -13 10 C-21.44067144 15.47022449 -33.44070508 23.88141017 -38 33 C-38.66 33 -39.32 33 -40 33 C-38.67502265 21.8113024 -30.33349662 13.02901311 -22 6 C-19.09678317 4.08070012 -16.15521474 2.46200683 -13 1 C-9.07466952 -0.96266524 -4.28932328 -0.34140779 0 0 Z " fill="#C6A75E" transform="translate(736,362)"/>
<path d="M0 0 C30 0 30 0 40 4 C44.67548434 8.77090239 46.17698832 11.56015126 46.375 18.125 C46.30557659 23.36646771 45.90773799 27.09762088 42.75390625 31.34765625 C34.77516703 38.86437494 24.9561777 39.15755155 14.625 39.0625 C9.860625 39.0315625 9.860625 39.0315625 5 39 C5 48.57 5 58.14 5 68 C3.35 68 1.7 68 0 68 C0 45.56 0 23.12 0 0 Z M5 4 C5 13.9 5 23.8 5 34 C8.63 34.061875 12.26 34.12375 16 34.1875 C17.69189453 34.22846802 17.69189453 34.22846802 19.41796875 34.27026367 C25.68193615 34.32161672 30.33358856 33.73236832 36 31 C40.02923002 26.97076998 40.84137636 24.14141908 41.25 18.625 C40.92090542 13.85312856 39.65156128 10.65156128 36.25 7.25 C29.59738396 3.5541022 22.97572498 3.75057454 15.5625 3.875 C12.076875 3.91625 8.59125 3.9575 5 4 Z " fill="#0A332B" transform="translate(731,630)"/>
<path d="M0 0 C35.8974359 0 35.8974359 0 42.5 6.4375 C45.96432569 12.35572305 46.68137653 17.17524471 46 24 C43.94903409 30.2735428 39.20815963 34.35679629 33.4375 37.3125 C27.1541187 39.08473575 21.09708032 39.12204609 14.625 39.0625 C9.860625 39.0315625 9.860625 39.0315625 5 39 C5 48.57 5 58.14 5 68 C3.35 68 1.7 68 0 68 C0 45.56 0 23.12 0 0 Z M5 4 C5 13.9 5 23.8 5 34 C8.609375 34.0825 12.21875 34.165 15.9375 34.25 C17.61573853 34.30462402 17.61573853 34.30462402 19.32788086 34.36035156 C25.88173704 34.43218734 31.46436956 33.75045153 37 30 C40.40961334 25.87292296 41.30110465 22.12937426 41 16.8125 C40.30349877 12.48755901 39.52015201 9.83329308 36 7 C29.00119927 4.08960762 22.36593371 3.6089877 14.875 3.8125 C11.61625 3.874375 8.3575 3.93625 5 4 Z " fill="#0A332B" transform="translate(665,630)"/>
<path d="M0 0 C13.86 0 27.72 0 42 0 C42 1.32 42 2.64 42 4 C29.79 4 17.58 4 5 4 C5 12.58 5 21.16 5 30 C15.23 30 25.46 30 36 30 C36 31.32 36 32.64 36 34 C25.77 34 15.54 34 5 34 C5 43.9 5 53.8 5 64 C17.54 64 30.08 64 43 64 C43 65.32 43 66.64 43 68 C28.81 68 14.62 68 0 68 C0 45.56 0 23.12 0 0 Z " fill="#0A332B" transform="translate(797,630)"/>
<path d="M0 0 C13.86 0 27.72 0 42 0 C42 1.32 42 2.64 42 4 C29.79 4 17.58 4 5 4 C5 12.58 5 21.16 5 30 C15.23 30 25.46 30 36 30 C36 31.32 36 32.64 36 34 C25.77 34 15.54 34 5 34 C5 43.9 5 53.8 5 64 C17.54 64 30.08 64 43 64 C43 65.32 43 66.64 43 68 C28.81 68 14.62 68 0 68 C0 45.56 0 23.12 0 0 Z " fill="#0A332B" transform="translate(602,630)"/>
<path d="M0 0 C2.97 0.495 2.97 0.495 6 1 C6 22.12 6 43.24 6 65 C17.55 65 29.1 65 41 65 C41 66.32 41 67.64 41 69 C27.47 69 13.94 69 0 69 C0 46.23 0 23.46 0 0 Z " fill="#0A332B" transform="translate(545,629)"/>
<path d="M0 0 C3.95359708 0.86620995 5.64401324 1.52777183 8.11816406 4.80981445 C8.77014238 5.98368757 9.40169068 7.16907086 10.015625 8.36328125 C10.35752869 8.99227829 10.69943237 9.62127533 11.05169678 10.26933289 C12.13579149 12.27464727 13.19264973 14.29298027 14.25 16.3125 C14.97488466 17.65910767 15.70143141 19.00482202 16.4296875 20.34960938 C22.02485956 30.75453496 22.02485956 30.75453496 24 36 C24.66 36 25.32 36 26 36 C26.27021973 35.28900146 26.54043945 34.57800293 26.81884766 33.84545898 C28.9452137 28.72292978 31.72683825 23.93010129 34.375 19.0625 C34.9525 17.99064453 35.53 16.91878906 36.125 15.81445312 C43.98548849 1.32279912 43.98548849 1.32279912 47.75 0.125 C48.4925 0.08375 49.235 0.0425 50 0 C49.31933786 3.55491746 47.86015655 6.29706304 46.0859375 9.4375 C45.48910156 10.49839844 44.89226563 11.55929687 44.27734375 12.65234375 C43.64957031 13.75707031 43.02179687 14.86179687 42.375 16 C41.46814453 17.61068359 41.46814453 17.61068359 40.54296875 19.25390625 C39.93839844 20.32511719 39.33382812 21.39632812 38.7109375 22.5 C38.10354736 23.58506836 37.49615723 24.67013672 36.87036133 25.78808594 C35.64792125 27.88734474 34.36255546 29.9515125 33.01049805 31.96972656 C27.80917749 39.91211317 26.9791309 46.35381157 27.0625 55.75 C27.04638672 57.03132812 27.03027344 58.31265625 27.01367188 59.6328125 C26.9787072 62.75632346 26.97468642 65.87649588 27 69 C25.35 69 23.7 69 22 69 C22.03254883 68.23671387 22.06509766 67.47342773 22.09863281 66.68701172 C22.68425092 48.43159854 20.86688625 35.83508864 10.58789062 20.38916016 C8.60997561 17.4131644 6.76895522 14.36706804 4.93945312 11.29833984 C4.17099937 10.01537539 3.38926972 8.74022849 2.59179688 7.47509766 C0.87893147 4.73051099 0 3.30648423 0 0 Z " fill="#0A332B" transform="translate(849,629)"/>
<path d="M0 0 C0 0.66 0 1.32 0 2 C-1.45792969 1.63648438 -1.45792969 1.63648438 -2.9453125 1.265625 C-7.61736508 0.11937787 -12.3060153 -0.94767166 -17 -2 C-17.83998535 -2.19207031 -18.6799707 -2.38414062 -19.54541016 -2.58203125 C-46.24028131 -8.5514491 -72.2990074 -7.00520547 -98.3203125 1.265625 C-101 2 -101 2 -105 2 C-105 1.34 -105 0.68 -105 0 C-95.51040834 -4.33670684 -86.14169582 -8.40257726 -76 -11 C-75.13246094 -11.22558594 -74.26492188 -11.45117188 -73.37109375 -11.68359375 C-50.75816064 -16.456338 -19.34634426 -13.95728243 0 0 Z " fill="#C6A75E" transform="translate(706,423)"/>
<path d="M0 0 C0.495 1.485 0.495 1.485 1 3 C0.08863281 2.75765625 -0.82273437 2.5153125 -1.76171875 2.265625 C-5.35165569 1.32694361 -8.95325777 0.44332769 -12.5625 -0.41796875 C-14.16041246 -0.79952157 -15.7568479 -1.18732614 -17.3515625 -1.58203125 C-40.46207506 -7.18804667 -63.94504871 -6.47767629 -87 -1 C-87.82000488 -0.80792969 -88.64000977 -0.61585938 -89.48486328 -0.41796875 C-94.00919615 0.65322421 -98.5106495 1.79083396 -103 3 C-102 0 -102 0 -98.9296875 -1.68359375 C-97.58453383 -2.28282772 -96.23238568 -2.86651498 -94.875 -3.4375 C-94.16158447 -3.74316895 -93.44816895 -4.04883789 -92.71313477 -4.36376953 C-63.66207019 -16.43718851 -27.62163156 -15.92394606 0 0 Z " fill="#C6A75E" transform="translate(705,411)"/>
<path d="M0 0 C2.97 0.495 2.97 0.495 6 1 C6 22.12 6 43.24 6 65 C17.55 65 29.1 65 41 65 C41 66.32 41 67.64 41 69 C27.47 69 13.94 69 0 69 C0 46.23 0 23.46 0 0 Z " fill="#0A332B" transform="translate(488,629)"/>
<path d="M0 0 C0.66 0.66 1.32 1.32 2 2 C1.625 5.125 1.625 5.125 1 8 C-0.98 8.33 -2.96 8.66 -5 9 C-6.5625 7.25 -6.5625 7.25 -8 5 C-7.8125 2.8125 -7.8125 2.8125 -7 1 C-4.48718205 -0.25640898 -2.78302919 -0.20872719 0 0 Z " fill="#C6A75E" transform="translate(716,315)"/>
<path d="M0 0 C2.5 0.25 2.5 0.25 4.5 2.25 C4.75 4.75 4.75 4.75 4.5 7.25 C2.5 9.25 2.5 9.25 0 9.5 C-2.5 9.25 -2.5 9.25 -4.5 7.25 C-4.75 4.75 -4.75 4.75 -4.5 2.25 C-2.5 0.25 -2.5 0.25 0 0 Z " fill="#C6A75E" transform="translate(594.5,314.75)"/>
<path d="M0 0 C0.625 2.375 0.625 2.375 1 5 C0.34 5.66 -0.32 6.32 -1 7 C-4.53571429 6.46428571 -4.53571429 6.46428571 -6 5 C-6.04063832 3.33382885 -6.042721 1.66611905 -6 0 C-3.50907189 -1.24546405 -2.58919267 -0.7767578 0 0 Z " fill="#C6A75E" transform="translate(748,362)"/>
</svg>
