<?xml version="1.0" standalone="no"?>
<!DOCTYPE svg PUBLIC "-//W3C//DTD SVG 20010904//EN"
 "http://www.w3.org/TR/2001/REC-SVG-20010904/DTD/svg10.dtd">
<svg version="1.0" xmlns="http://www.w3.org/2000/svg"
 viewBox="90 370 890 350"
 preserveAspectRatio="xMinYMid meet">

<g transform="translate(0.000000,1080.000000) scale(0.100000,-0.100000)"
fill="#000000" stroke="none">
<path d="M2265 6950 c-230 -27 -417 -104 -601 -246 -387 -300 -573 -892 -421
-1339 50 -146 116 -253 232 -374 206 -215 442 -311 769 -311 366 0 665 121
888 358 245 261 357 571 345 956 -6 224 -43 348 -151 509 -152 229 -371 373
-655 432 -89 18 -309 27 -406 15z m146 -230 c98 -25 216 -75 316 -134 451
-269 647 -810 441 -1221 -150 -299 -471 -490 -793 -472 -214 12 -385 91 -564
262 -161 153 -275 341 -327 540 -23 86 -27 122 -28 255 -1 122 3 169 17 220
43 151 136 289 263 390 214 170 430 221 675 160z"/>
<path d="M3717 6318 c46 -48 63 -77 74 -128 5 -19 9 -317 9 -663 1 -692 2
-672 -62 -720 -15 -11 -28 -23 -28 -26 0 -3 268 -5 595 -3 l595 2 0 195 0 195
-40 0 c-24 0 -42 -5 -45 -12 -2 -7 -14 -46 -26 -86 -59 -195 -170 -257 -448
-250 -127 3 -131 4 -158 31 l-28 27 -3 593 c-3 722 1 758 93 850 l38 37 -303
0 -304 0 41 -42z"/>
<path d="M5228 6325 c17 -19 36 -51 41 -72 15 -54 15 -1279 0 -1339 -7 -28
-28 -62 -54 -92 l-42 -47 286 0 286 0 -41 41 c-69 68 -69 67 -69 749 0 655 2
680 56 754 l29 41 -261 0 -261 0 30 -35z"/>
<path d="M5900 6356 c0 -2 16 -27 35 -55 26 -40 73 -170 205 -574 94 -287 203
-619 243 -737 l72 -215 116 -3 117 -3 15 43 c121 349 467 1298 490 1343 36 72
87 152 116 183 l22 22 -186 0 -186 0 39 -52 c95 -128 92 -150 -109 -730 -88
-254 -161 -464 -163 -466 -7 -6 -314 931 -331 1011 -22 99 -16 148 25 198 l31
39 -276 0 c-151 0 -275 -2 -275 -4z"/>
<path d="M7507 6338 c11 -13 29 -39 39 -58 18 -33 19 -70 19 -695 l0 -660 -23
-47 c-13 -26 -37 -59 -53 -72 -16 -14 -29 -26 -29 -28 0 -2 128 -3 285 -3 157
0 285 1 285 3 0 2 -14 15 -32 30 -17 14 -40 47 -52 72 -20 44 -21 60 -24 630
-4 697 1 751 71 828 l20 22 -263 0 -263 0 20 -22z"/>
<path d="M8636 6028 c-114 -338 -335 -952 -379 -1050 -14 -32 -46 -89 -71
-128 -25 -39 -46 -73 -46 -75 0 -3 86 -5 190 -5 105 0 190 4 190 8 0 5 -12 19
-26 33 -63 58 -80 163 -49 311 15 72 292 946 304 960 10 11 381 -1151 381
-1190 0 -37 -13 -66 -43 -99 l-20 -23 276 0 c152 0 277 2 277 5 0 3 -15 24
-32 48 -58 75 -99 181 -328 857 l-227 665 -144 3 -144 2 -109 -322z"/>
<path d="M4411 4478 c-8 -21 -246 -615 -258 -645 -3 -8 3 -13 15 -13 16 0 28
23 67 120 l47 120 152 0 153 0 43 -112 c47 -125 51 -131 73 -126 12 2 -14 76
-118 338 -134 338 -153 373 -174 318z m95 -203 c31 -82 58 -158 61 -167 5 -17
-6 -18 -131 -18 -75 0 -136 3 -136 6 0 4 30 87 67 186 48 127 70 174 75 161 4
-10 33 -85 64 -168z"/>
<path d="M4890 4160 l0 -340 195 0 c167 0 195 2 195 15 0 13 -26 15 -175 15
l-175 0 0 325 c0 318 0 325 -20 325 -20 0 -20 -7 -20 -340z"/>
<path d="M5460 4160 l0 -340 195 0 c167 0 195 2 195 15 0 13 -26 15 -175 15
l-175 0 0 325 c0 318 0 325 -20 325 -20 0 -20 -7 -20 -340z"/>
<path d="M6030 4160 l0 -340 205 0 c176 0 205 2 205 15 0 13 -28 15 -190 15
l-191 0 3 158 3 157 153 3 c126 2 152 5 152 17 0 13 -25 15 -155 15 l-156 0 3
133 3 132 183 3 c153 2 182 5 182 17 0 13 -30 15 -200 15 l-200 0 0 -340z"/>
<path d="M6657 4493 c-4 -3 -7 -156 -7 -340 0 -326 0 -333 20 -333 19 0 20 7
20 149 l0 149 133 4 c210 8 277 55 277 196 0 98 -51 149 -169 172 -60 11 -264
14 -274 3z m326 -51 c55 -25 77 -62 77 -132 0 -65 -21 -101 -74 -131 -35 -20
-58 -24 -168 -27 l-128 -4 0 162 0 163 124 -5 c93 -4 134 -11 169 -26z"/>
<path d="M7320 4160 c0 -296 2 -340 15 -340 13 0 15 23 15 149 l0 149 133 4
c150 4 208 23 249 81 33 46 37 159 9 204 -42 67 -126 92 -308 93 l-113 0 0
-340z m322 282 c60 -26 80 -57 80 -124 1 -70 -22 -112 -75 -140 -35 -19 -62
-23 -169 -26 l-128 -4 0 154 c0 85 3 158 8 162 4 5 59 6 122 4 87 -4 127 -10
162 -26z"/>
<path d="M7980 4160 l0 -340 205 0 c174 0 205 2 205 15 0 12 -30 15 -187 17
l-188 3 0 155 0 155 153 3 c126 2 152 5 152 17 0 13 -25 15 -155 15 l-156 0 3
133 3 132 183 3 c153 2 182 5 182 17 0 13 -30 15 -200 15 l-200 0 0 -340z"/>
<path d="M8503 4486 c3 -7 53 -97 111 -200 l106 -186 0 -140 c0 -133 1 -140
20 -140 19 0 20 7 20 141 l0 141 111 195 c60 108 108 198 105 200 -13 13 -36
-11 -71 -74 -92 -169 -159 -283 -166 -283 -4 0 -52 81 -106 180 -72 132 -103
180 -117 180 -11 0 -16 -5 -13 -14z"/>
</g>
</svg>
